%TF.GenerationSoftware,KiCad,Pcbnew,(6.0.2)*%
%TF.CreationDate,2022-02-24T13:51:07+07:00*%
%TF.ProjectId,LED_9x9,4c45445f-3978-4392-9e6b-696361645f70,rev?*%
%TF.SameCoordinates,Original*%
%TF.FileFunction,Soldermask,Top*%
%TF.FilePolarity,Negative*%
%FSLAX46Y46*%
G04 Gerber Fmt 4.6, Leading zero omitted, Abs format (unit mm)*
G04 Created by KiCad (PCBNEW (6.0.2)) date 2022-02-24 13:51:07*
%MOMM*%
%LPD*%
G01*
G04 APERTURE LIST*
%ADD10R,3.500000X2.700000*%
%ADD11C,5.700000*%
%ADD12R,3.000000X3.000000*%
%ADD13C,3.000000*%
G04 APERTURE END LIST*
D10*
%TO.C,D14*%
X122855100Y-51037800D03*
X110155100Y-53737800D03*
D11*
X116505100Y-52387800D03*
%TD*%
D10*
%TO.C,D12*%
X101855100Y-97037800D03*
X89155100Y-99737800D03*
D11*
X95505100Y-98387800D03*
%TD*%
D10*
%TO.C,D11*%
X101855100Y-74037800D03*
X89155100Y-76737800D03*
D11*
X95505100Y-75387800D03*
%TD*%
D12*
%TO.C,J2*%
X87505100Y-105887800D03*
X82505100Y-105887800D03*
%TD*%
D10*
%TO.C,D16*%
X122855100Y-97037800D03*
X110155100Y-99737800D03*
D11*
X116505100Y-98387800D03*
%TD*%
D12*
%TO.C,J1*%
X87505100Y-21887800D03*
X82505100Y-21887800D03*
%TD*%
D10*
%TO.C,D15*%
X122855100Y-74037800D03*
X110155100Y-76737800D03*
D11*
X116505100Y-75387800D03*
%TD*%
D10*
%TO.C,D13*%
X122855100Y-28037800D03*
X110155100Y-30737800D03*
D11*
X116505100Y-29387800D03*
%TD*%
D10*
%TO.C,D10*%
X101855100Y-51037800D03*
X89155100Y-53737800D03*
D11*
X95505100Y-52387800D03*
%TD*%
D10*
%TO.C,D7*%
X80855100Y-74037800D03*
X68155100Y-76737800D03*
D11*
X74505100Y-75387800D03*
%TD*%
D10*
%TO.C,D1*%
X59855100Y-28037800D03*
X47155100Y-30737800D03*
D11*
X53505100Y-29387800D03*
%TD*%
D13*
%TO.C,REF\u002A\u002A*%
X43499989Y-22500001D03*
%TD*%
%TO.C,REF\u002A\u002A*%
X43499989Y-105499992D03*
%TD*%
D10*
%TO.C,D9*%
X101855100Y-28037800D03*
X89155100Y-30737800D03*
D11*
X95505100Y-29387800D03*
%TD*%
D10*
%TO.C,D6*%
X80855100Y-51037800D03*
X68155100Y-53737800D03*
D11*
X74505100Y-52387800D03*
%TD*%
D10*
%TO.C,D5*%
X80855100Y-28037800D03*
X68155100Y-30737800D03*
D11*
X74505100Y-29387800D03*
%TD*%
D10*
%TO.C,D4*%
X59855100Y-97037800D03*
X47155100Y-99737800D03*
D11*
X53505100Y-98387800D03*
%TD*%
D10*
%TO.C,D2*%
X59855100Y-51037800D03*
X47155100Y-53737800D03*
D11*
X53505100Y-52387800D03*
%TD*%
D10*
%TO.C,D8*%
X80855100Y-97037800D03*
X68155100Y-99737800D03*
D11*
X74505100Y-98387800D03*
%TD*%
D10*
%TO.C,D3*%
X59855100Y-74037800D03*
X47155100Y-76737800D03*
D11*
X53505100Y-75387800D03*
%TD*%
D13*
%TO.C,REF\u002A\u002A*%
X126500000Y-105500000D03*
%TD*%
%TO.C,REF\u002A\u002A*%
X126500001Y-22500001D03*
%TD*%
M02*
